<?xml version="1.0" encoding="UTF-8" standalone="no"?>
<svg width="64px" height="64px" viewBox="0 0 64 64" version="1.1" xmlns="http://www.w3.org/2000/svg" xmlns:xlink="http://www.w3.org/1999/xlink" xmlns:sketch="http://www.bohemiancoding.com/sketch/ns">
    <!-- Generator: Sketch 3.2.2 (9983) - http://www.bohemiancoding.com/sketch -->
    <title>beerticon_bottle</title>
    <desc>Created with Sketch.</desc>
    <defs></defs>
    <g id="Elements" stroke="none" stroke-width="1" fill="none" fill-rule="evenodd" sketch:type="MSPage">
        <g id="UI-Kit" sketch:type="MSArtboardGroup" transform="translate(-152.000000, -62.000000)">
            <g id="beerticon_bottle" sketch:type="MSLayerGroup" transform="translate(152.000000, 62.000000)">
                <g sketch:type="MSShapeGroup">
                    <path d="M32,64 C49.673112,64 64,49.673112 64,32 C64,14.326888 49.673112,0 32,0 C14.326888,0 0,14.326888 0,32 C0,49.673112 14.326888,64 32,64 Z" id="Oval-123" fill="#42F2F3"></path>
                    <g id="Imported-EPS-4" transform="translate(23.000000, 4.000000)">
                        <path d="M12.983,2.854 L12.389,2.854 C12.556,3.705 13.56,8.88 13.626,11.145 C13.699,13.618 13.782,15.724 13.753,17.621 C13.741,18.394 13.963,18.883 14.299,19.556 C14.636,20.229 15.561,20.733 16.486,21.995 C17.715,23.671 18,26.2 18,28.219 L18,52.948 C18,53.775 17.501,54.486 16.788,54.798 C16.052,55.182 12.845,55.47 9,55.47 C5.155,55.47 1.948,55.182 1.212,54.798 C0.499,54.486 0,53.775 0,52.948 L0,28.219 C0,26.2 0.285,23.671 1.514,21.995 C2.439,20.733 3.364,20.229 3.701,19.556 C4.037,18.883 4.259,18.394 4.247,17.621 C4.218,15.724 4.301,13.618 4.373,11.145 C4.44,8.88 5.443,3.705 5.611,2.854 L5.016,2.854" id="bottle" fill="#E07F44"></path>
                        <rect id="Rectangle-321" fill="#252671" x="0" y="29" width="18" height="14"></rect>
                        <polygon id="score_icon" fill="#FFCD35" points="9 39.7331339 5.38950555 41.0675115 6.07904863 37.0632482 3.15809727 34.2274132 7.19475278 33.6431991 9 30 10.8052472 33.6431991 14.8419027 34.2274132 11.9209514 37.0632482 12.6104944 41.0675115 "></polygon>
                        <path d="M12.389,2.854 L12.983,2.854 L12.768,1.851 C12.523,0.848 12.249,0 11.609,0 L6.391,0 C5.751,0 5.451,0.81 5.232,1.851 L5.016,2.854 L5.611,2.854" id="cap" fill="#B835FF"></path>
                    </g>
                </g>
            </g>
        </g>
    </g>
</svg>