<?xml version="1.0" encoding="UTF-8" standalone="no"?>
<svg width="64px" height="64px" viewBox="0 0 64 64" version="1.1" xmlns="http://www.w3.org/2000/svg" xmlns:xlink="http://www.w3.org/1999/xlink" xmlns:sketch="http://www.bohemiancoding.com/sketch/ns">
    <!-- Generator: Sketch 3.2.2 (9983) - http://www.bohemiancoding.com/sketch -->
    <title>beerticon_bottle</title>
    <desc>Created with Sketch.</desc>
    <defs></defs>
    <g id="Elements" stroke="none" stroke-width="1" fill="none" fill-rule="evenodd" sketch:type="MSPage">
        <g id="UI-Kit" sketch:type="MSArtboardGroup" transform="translate(-120.000000, -62.000000)">
            <g id="beerticon_bottle" sketch:type="MSLayerGroup" transform="translate(120.000000, 62.000000)">
                <g sketch:type="MSShapeGroup">
                    <g>
                        <rect id="Rectangle-325" fill="#42F2F3" x="0" y="0" width="64" height="64"></rect>
                        <g id="Imported-EPS-4" transform="translate(23.000000, 4.000000)">
                            <path d="M12.983,2.854 L12.389,2.854 C12.556,3.705 13.56,8.88 13.626,11.145 C13.699,13.618 13.782,15.724 13.753,17.621 C13.741,18.394 13.963,18.883 14.299,19.556 C14.636,20.229 15.561,20.733 16.486,21.995 C17.715,23.671 18,26.2 18,28.219 L18,52.948 C18,53.775 17.501,54.486 16.788,54.798 C16.052,55.182 12.845,55.47 9,55.47 C5.155,55.47 1.948,55.182 1.212,54.798 C0.499,54.486 0,53.775 0,52.948 L0,28.219 C0,26.2 0.285,23.671 1.514,21.995 C2.439,20.733 3.364,20.229 3.701,19.556 C4.037,18.883 4.259,18.394 4.247,17.621 C4.218,15.724 4.301,13.618 4.373,11.145 C4.44,8.88 5.443,3.705 5.611,2.854 L5.016,2.854" id="bottle" fill="#E07F44"></path>
                            <rect id="Rectangle-321" fill="#252671" x="0" y="29" width="18" height="14"></rect>
                            <path d="M9.00085178,40.9012199 C7.74691564,40.3560302 4.10521931,36.6470371 3.47654752,35.0540611 C2.84872759,33.4602333 3.56854827,31.6329962 5.08570878,30.9736575 C6.60201743,30.313467 8.34066122,31.0699176 8.96933301,32.6637454 C8.97955531,32.690153 8.98977762,32.7182643 8.99999993,32.7463757 C9.01022223,32.7182643 9.02044454,32.690153 9.03066684,32.6637454 C9.65933863,31.0699176 11.3979824,30.313467 12.9142911,30.9736575 C14.4314516,31.6329962 15.1512723,33.4602333 14.5234523,35.0540611 C13.8947805,36.6470371 10.3365664,40.3194003 9.00085178,40.9012199 Z" id="heart" fill="#66D34E"></path>
                            <path d="M12.389,2.854 L12.983,2.854 L12.768,1.851 C12.523,0.848 12.249,0 11.609,0 L6.391,0 C5.751,0 5.451,0.81 5.232,1.851 L5.016,2.854 L5.611,2.854" id="cap" fill="#B835FF"></path>
                        </g>
                    </g>
                </g>
            </g>
        </g>
    </g>
</svg>